<?xml version="1.0" standalone="no"?>
<!DOCTYPE svg PUBLIC "-//W3C//DTD SVG 20010904//EN"
 "http://www.w3.org/TR/2001/REC-SVG-20010904/DTD/svg10.dtd">
<svg version="1.0" xmlns="http://www.w3.org/2000/svg"
 width="60.000000pt" height="60.000000pt" viewBox="0 0 60.000000 60.000000"
 preserveAspectRatio="xMidYMid meet">

<g transform="translate(0.000000,60.000000) scale(0.100000,-0.100000)"
fill="#000000" stroke="none">
<path d="M188 520 c-7 -11 -21 -20 -31 -20 -28 0 -77 -54 -77 -85 0 -14 -7
-37 -16 -50 l-16 -25 56 0 c49 0 56 2 56 20 0 11 -6 29 -12 40 -17 26 0 55 32
55 32 0 47 -27 32 -57 -6 -13 -13 -39 -14 -58 l-3 -35 -77 -3 c-43 -2 -78 -7
-78 -12 0 -16 23 -60 32 -60 4 0 8 -16 8 -36 0 -36 17 -58 88 -112 55 -41 92
-19 92 54 0 37 -3 44 -20 44 -11 0 -29 -6 -40 -12 -26 -17 -55 0 -55 32 0 32
29 49 55 32 11 -6 29 -12 40 -12 19 0 20 6 20 148 0 102 -4 152 -12 160 -18
18 -46 14 -60 -8z"/>
<path d="M312 528 c-7 -7 -12 -34 -12 -60 0 -41 3 -48 20 -48 11 0 29 6 40 12
26 17 55 0 55 -32 0 -32 -29 -49 -55 -32 -11 6 -29 12 -40 12 -19 0 -20 -6
-20 -144 0 -118 3 -147 16 -160 21 -22 41 -20 74 7 16 12 40 30 54 40 38 27
32 36 -26 39 -48 3 -53 5 -56 28 -2 14 -8 35 -14 48 -15 30 0 57 32 57 32 0
49 -29 32 -55 -20 -32 -14 -40 29 -40 26 0 39 4 37 12 -2 6 6 21 19 34 28 28
29 68 3 112 -11 18 -20 44 -20 58 0 30 -50 84 -77 84 -10 0 -24 9 -31 20 -14
22 -42 26 -60 8z"/>
</g>
</svg>
