<?xml version="1.0" standalone="no"?>
<!DOCTYPE svg PUBLIC "-//W3C//DTD SVG 20010904//EN"
 "http://www.w3.org/TR/2001/REC-SVG-20010904/DTD/svg10.dtd">
<svg version="1.0" xmlns="http://www.w3.org/2000/svg"
 width="64.000000pt" height="64.000000pt" viewBox="0 0 64.000000 64.000000"
 preserveAspectRatio="xMidYMid meet">

<g transform="translate(0.000000,64.000000) scale(0.100000,-0.100000)"
fill="#000000" stroke="none">
<path d="M252 560 c-81 -88 -105 -143 -106 -240 0 -53 5 -85 18 -110 23 -44
82 -107 119 -126 21 -12 27 -22 27 -49 0 -19 5 -35 10 -35 6 0 10 16 10 35 0
27 6 37 28 49 36 19 95 82 118 126 27 51 24 169 -5 234 -17 40 -130 176 -151
183 -3 1 -33 -29 -68 -67z m125 -11 c77 -80 95 -118 101 -207 6 -96 -13 -147
-80 -207 -28 -25 -54 -45 -59 -45 -5 0 -9 104 -9 235 0 150 -4 235 -10 235 -6
0 -10 -85 -10 -235 0 -131 -4 -235 -9 -235 -23 0 -111 94 -127 135 -21 56 -16
174 11 225 13 26 114 147 132 159 1 0 28 -26 60 -60z"/>
</g>
</svg>
