<?xml version="1.0" standalone="no"?>
<!DOCTYPE svg PUBLIC "-//W3C//DTD SVG 20010904//EN"
 "http://www.w3.org/TR/2001/REC-SVG-20010904/DTD/svg10.dtd">
<svg version="1.0" xmlns="http://www.w3.org/2000/svg"
 width="900.000000pt" height="900.000000pt" viewBox="0 0 900.000000 900.000000"
 preserveAspectRatio="xMidYMid meet">

<g transform="translate(0.000000,900.000000) scale(0.100000,-0.100000)"
fill="#000000" stroke="none">
<path d="M0 4500 l0 -4500 4500 0 4500 0 0 4500 0 4500 -4500 0 -4500 0 0
-4500z m6890 1560 c173 -34 268 -86 383 -210 92 -99 126 -166 162 -318 27
-114 -1 -285 -66 -392 -5 -8 -13 -24 -18 -35 -5 -12 -16 -27 -25 -34 -9 -7
-16 -19 -16 -25 0 -15 -83 -94 -140 -132 -54 -37 -114 -65 -195 -93 -84 -30
-243 -29 -334 0 -79 26 -151 58 -169 76 -7 7 -17 13 -20 13 -11 0 -113 100
-153 150 -41 52 -79 123 -79 148 0 41 -9 42 -418 42 l-393 0 -45 -26 c-52 -31
-113 -98 -120 -134 -3 -14 -12 -44 -20 -67 -9 -24 -19 -76 -24 -115 -17 -146
-78 -278 -169 -367 l-35 -34 30 -26 c80 -72 160 -239 174 -361 17 -158 69
-270 145 -315 81 -47 215 -71 243 -43 7 7 12 22 12 34 0 13 4 25 9 28 5 3 12
17 15 31 23 91 227 288 322 311 16 4 38 13 49 20 11 8 37 14 59 14 21 0 56 5
78 12 46 14 196 -2 263 -28 57 -22 125 -56 148 -74 44 -34 187 -182 187 -195
0 -7 7 -18 15 -25 8 -7 15 -19 15 -28 0 -8 6 -23 14 -31 8 -9 24 -56 36 -104
18 -71 22 -106 18 -178 -3 -49 -10 -95 -16 -101 -6 -7 -13 -30 -17 -51 -18
-93 -141 -261 -244 -333 -35 -25 -110 -64 -123 -64 -5 0 -24 -6 -41 -14 -81
-37 -318 -37 -389 0 -14 8 -35 14 -46 14 -11 0 -25 7 -32 15 -7 8 -18 15 -25
15 -29 0 -158 114 -220 195 -35 46 -75 125 -75 150 0 36 -19 43 -124 44 -64 1
-109 7 -127 17 -15 7 -35 14 -43 14 -35 0 -172 81 -226 134 -55 54 -140 167
-140 186 0 6 -9 27 -20 47 -11 21 -20 45 -20 53 0 8 -7 33 -15 55 -8 22 -14
63 -15 90 0 102 -62 227 -133 272 -59 37 -102 45 -259 49 -111 2 -138 0 -138
-11 0 -7 -19 -50 -42 -95 -39 -74 -116 -165 -205 -240 -30 -26 -167 -90 -191
-90 -13 0 -45 -7 -72 -16 -97 -32 -266 -3 -405 69 -54 28 -167 128 -202 180
-15 23 -31 44 -34 47 -10 9 -47 94 -53 121 -8 35 -23 38 -184 38 -119 0 -135
-2 -153 -20 -10 -10 -19 -28 -19 -38 0 -23 -38 -92 -57 -104 -7 -4 -13 -15
-13 -23 0 -16 -128 -154 -143 -154 -6 0 -18 -6 -26 -14 -27 -24 -154 -86 -176
-86 -11 0 -42 -7 -69 -15 -65 -20 -145 -19 -231 2 -74 18 -170 56 -180 73 -3
6 -13 10 -21 10 -9 0 -30 13 -47 29 -18 16 -46 42 -63 58 -79 72 -159 204
-175 288 -4 22 -13 70 -20 108 -11 59 -11 75 4 131 9 35 17 76 17 89 0 24 29
86 71 152 10 17 24 41 31 54 14 26 127 138 157 155 11 6 41 23 67 39 25 15 55
27 66 27 10 0 30 7 43 16 19 12 54 16 162 17 120 0 147 -2 206 -23 37 -12 70
-27 73 -31 3 -5 12 -9 21 -9 48 0 273 -228 273 -277 0 -6 7 -16 15 -23 8 -7
15 -23 15 -36 0 -48 20 -54 180 -54 122 0 151 3 164 16 9 8 16 21 16 28 0 21
38 102 55 116 8 7 15 18 15 24 0 16 137 147 185 177 114 70 178 90 300 94 157
4 224 -13 374 -95 74 -41 221 -211 237 -275 3 -14 10 -25 14 -25 4 0 10 -13
14 -30 l5 -30 149 0 c146 0 150 1 210 31 38 18 75 47 96 72 36 46 76 161 76
222 0 41 34 166 56 207 8 14 14 31 14 37 0 42 191 241 260 270 14 6 32 15 40
20 94 53 170 61 589 61 389 0 391 0 391 53 0 13 16 46 35 76 19 29 35 57 35
62 0 16 151 161 183 175 18 8 39 18 47 23 36 20 89 41 145 56 33 10 65 19 70
20 20 7 111 4 155 -5z"/>
<path d="M6760 5710 c-14 -4 -40 -8 -57 -9 -26 -1 -45 -13 -93 -61 -33 -33
-60 -68 -60 -78 0 -10 -7 -27 -15 -38 -20 -26 -20 -163 0 -190 8 -10 15 -27
15 -37 0 -28 92 -113 136 -127 21 -7 43 -16 49 -21 12 -12 130 -12 153 0 9 5
28 14 42 20 78 36 105 62 137 129 37 79 37 188 -2 263 -57 113 -200 182 -305
149z"/>
<path d="M2104 4785 c-10 -8 -26 -15 -35 -15 -30 0 -106 -68 -127 -112 -31
-68 -33 -79 -33 -160 1 -113 26 -159 138 -249 43 -34 233 -32 277 2 13 11 28
19 32 19 17 0 94 85 94 105 0 11 7 29 15 39 24 32 20 143 -9 207 -24 55 -112
149 -139 149 -8 0 -28 7 -43 15 -38 20 -144 20 -170 0z"/>
<path d="M3650 4785 c-14 -8 -33 -14 -43 -15 -30 0 -115 -88 -142 -147 -19
-43 -25 -72 -25 -129 0 -40 5 -76 10 -79 6 -4 16 -21 24 -38 19 -47 61 -92
113 -123 41 -24 57 -27 137 -27 107 -1 164 21 223 86 52 58 65 99 64 198 0 73
-5 95 -26 135 -32 60 -75 99 -144 130 -62 28 -151 32 -191 9z"/>
<path d="M6070 3846 c-64 -34 -140 -112 -140 -145 0 -14 -7 -35 -15 -45 -21
-27 -19 -101 4 -166 22 -64 91 -147 129 -157 15 -3 33 -12 40 -20 16 -16 197
-19 207 -3 4 6 21 16 38 24 51 21 127 102 127 134 0 10 7 39 15 64 15 42 14
51 -3 118 -23 90 -74 156 -148 194 -71 36 -188 37 -254 2z"/>
</g>
</svg>
