<?xml version="1.0" standalone="no"?>
<!DOCTYPE svg PUBLIC "-//W3C//DTD SVG 20010904//EN"
 "http://www.w3.org/TR/2001/REC-SVG-20010904/DTD/svg10.dtd">
<svg version="1.0" xmlns="http://www.w3.org/2000/svg"
 width="50.000000pt" height="50.000000pt" viewBox="0 0 50.000000 50.000000"
 preserveAspectRatio="xMidYMid meet">

<g transform="translate(0.000000,50.000000) scale(0.100000,-0.100000)"
fill="#000000" stroke="none">
<path d="M45 447 c-3 -7 -4 -100 -3 -207 l3 -195 205 0 205 0 0 205 0 205
-203 3 c-159 2 -204 0 -207 -11z m152 -161 c-15 -12 -16 -15 -2 -26 23 -19 15
-54 -12 -58 -13 -2 -23 1 -23 7 0 6 7 11 15 11 19 0 19 9 -1 31 -21 23 -11 49
18 49 21 -1 22 -2 5 -14z m78 -36 c0 -25 5 -49 10 -53 6 -5 -3 -6 -20 -2 -34
7 -45 20 -45 52 0 37 11 54 34 51 18 -3 21 -10 21 -48z m45 10 c0 -22 5 -40
10 -40 6 0 10 -4 10 -10 0 -5 -9 -10 -20 -10 -17 0 -20 7 -20 50 0 28 5 50 10
50 6 0 10 -18 10 -40z"/>
<path d="M240 250 c0 -16 5 -30 10 -30 6 0 10 14 10 30 0 17 -4 30 -10 30 -5
0 -10 -13 -10 -30z"/>
</g>
</svg>
