<?xml version="1.0" standalone="no"?>
<!DOCTYPE svg PUBLIC "-//W3C//DTD SVG 20010904//EN"
 "http://www.w3.org/TR/2001/REC-SVG-20010904/DTD/svg10.dtd">
<svg version="1.0" xmlns="http://www.w3.org/2000/svg"
 width="64.000000pt" height="64.000000pt" viewBox="0 0 64.000000 64.000000"
 preserveAspectRatio="xMidYMid meet">

<g transform="translate(0.000000,64.000000) scale(0.100000,-0.100000)"
fill="#000000" stroke="none">
<path d="M112 580 c-39 -24 -72 -75 -72 -113 0 -15 8 -44 17 -65 9 -20 20 -46
23 -56 4 -16 17 -20 70 -23 76 -4 117 16 150 69 71 117 -71 259 -188 188z m78
-45 c0 -8 -4 -15 -10 -15 -5 0 -10 7 -10 15 0 8 5 15 10 15 6 0 10 -7 10 -15z
m-65 -14 c-3 -6 -11 -11 -17 -11 -6 0 -6 6 2 15 14 17 26 13 15 -4z m131 -8
c-7 -7 -26 7 -26 19 0 6 6 6 15 -2 9 -7 13 -15 11 -17z m-56 -53 c0 -13 -7
-20 -20 -20 -13 0 -20 7 -20 20 0 13 7 20 20 20 13 0 20 -7 20 -20z m-80 0 c0
-5 -7 -10 -15 -10 -8 0 -15 5 -15 10 0 6 7 10 15 10 8 0 15 -4 15 -10z m150 0
c0 -5 -7 -10 -15 -10 -8 0 -15 5 -15 10 0 6 7 10 15 10 8 0 15 -4 15 -10z
m-145 -61 c11 -17 -1 -21 -15 -4 -8 9 -8 15 -2 15 6 0 14 -5 17 -11z m135 2
c0 -12 -20 -25 -27 -18 -7 7 6 27 18 27 5 0 9 -4 9 -9z m-70 -16 c0 -8 -4 -15
-10 -15 -5 0 -10 7 -10 15 0 8 5 15 10 15 6 0 10 -7 10 -15z"/>
<path d="M367 473 c-4 -3 -7 -25 -7 -47 0 -37 -6 -48 -58 -99 -37 -37 -64 -56
-73 -52 -9 3 -23 -3 -34 -15 -11 -12 -31 -20 -50 -20 -25 0 -41 -9 -69 -41
-35 -38 -37 -44 -34 -97 l3 -57 58 -3 c56 -3 60 -2 98 36 28 28 39 48 39 69 0
17 9 38 20 48 11 10 18 26 15 35 -3 10 15 36 53 72 50 50 63 57 102 60 41 3
45 5 48 32 5 37 -40 86 -78 86 -15 0 -30 -3 -33 -7z m61 -45 c18 -18 15 -28
-8 -28 -13 0 -20 7 -20 20 0 23 10 26 28 8z m-198 -207 c0 -12 -20 -25 -27
-18 -7 7 6 27 18 27 5 0 9 -4 9 -9z m-53 -43 c13 -12 23 -29 23 -39 0 -22 -46
-59 -73 -59 -20 0 -20 1 -2 20 14 16 16 23 7 32 -9 9 -16 7 -32 -7 -19 -18
-20 -18 -20 2 0 26 37 73 58 73 8 0 26 -10 39 -22z"/>
<path d="M397 302 c-36 -36 -37 -40 -37 -109 0 -62 -2 -71 -20 -76 -25 -7 -26
-27 -1 -34 11 -3 21 -14 24 -24 5 -18 14 -19 119 -17 l113 3 0 145 0 145 -80
3 -80 3 -38 -39z m163 -112 l0 -110 -80 0 -80 0 0 69 0 70 38 3 c35 3 37 5 40
41 3 36 4 37 43 37 l39 0 0 -110z m-120 85 c0 -8 -7 -15 -16 -15 -14 0 -14 3
-4 15 7 8 14 15 16 15 2 0 4 -7 4 -15z"/>
<path d="M425 190 c-13 -21 11 -31 61 -28 36 2 49 7 49 18 0 19 -99 27 -110
10z"/>
<path d="M425 130 c-13 -21 11 -31 61 -28 36 2 49 7 49 18 0 19 -99 27 -110
10z"/>
<path d="M84 286 c-8 -22 3 -49 19 -43 16 5 16 49 0 54 -7 3 -16 -2 -19 -11z"/>
<path d="M245 110 c-4 -7 -3 -16 3 -22 14 -14 47 -6 47 12 0 18 -40 26 -50 10z"/>
</g>
</svg>
